<svg xmlns="http://www.w3.org/2000/svg" viewBox="0 0 470.16 35.34"><defs><style>.cls-1{fill:#a1cc46;}.cls-2{fill:#003b87;}.cls-3{fill:#49545d;}</style></defs><title>资源 3</title><g id="图层_2" data-name="图层 2"><g id="图层_1-2" data-name="图层 1"><g id="_编组_" data-name="&lt;编组&gt;"><g id="_编组_2" data-name="&lt;编组&gt;"><g id="_编组_3" data-name="&lt;编组&gt;"><g id="_编组_4" data-name="&lt;编组&gt;"><path id="_路径_" data-name="&lt;路径&gt;" class="cls-1" d="M18.84,0H0V18.84A71.69,71.69,0,0,1,18.84,0Z"/></g><g id="_编组_5" data-name="&lt;编组&gt;"><path id="_路径_2" data-name="&lt;路径&gt;" class="cls-2" d="M50.75,8l-.35.41-1.66-4H42.43v31H51V12.7l.11-.1a11.14,11.14,0,0,1,6.84-2h4.32V4.37H58.71A11.41,11.41,0,0,0,50.75,8Z"/><path id="_复合路径_" data-name="&lt;复合路径&gt;" class="cls-2" d="M95.32,16.91a12.58,12.58,0,0,0-4-9.69C88.82,4.94,85.23,3.74,81,3.74h-.92c-12.1,0-16.42,8-16.42,15.47v.61c0,6.42,2.52,11.23,7.3,13.89,2,1.13,5.05,1.63,9.82,1.63h1.62a60,60,0,0,0,11.23-.83v-4.7a64.39,64.39,0,0,1-9.3,1H83c-3.31,0-4.51-.27-5.48-.73-2.82-1.35-4.49-4-5-7.9l0-.36H95.34V17.23h0Zm-8.49.32H72.47l0-.35A12.74,12.74,0,0,1,74,11.46c1.19-1.92,3.08-2.85,5.77-2.85s4.42.78,5.59,2.38a9.85,9.85,0,0,1,1.49,5.93Z"/><path id="_路径_3" data-name="&lt;路径&gt;" class="cls-2" d="M28.3,1.71A12.4,12.4,0,0,0,26,.75q-3,2.12-5.9,4.46a8.85,8.85,0,0,1,7.21,5.75,20.11,20.11,0,0,1,0,13.44,8.87,8.87,0,0,1-8.43,5.8H8.54v-14A103,103,0,0,0,0,27.09v8.25H20.61A16.21,16.21,0,0,0,30,32.55,18.22,18.22,0,0,0,28.3,1.71Z"/><path id="_复合路径_2" data-name="&lt;复合路径&gt;" class="cls-2" d="M241.16,3.92c-1-.07-2.06-.1-3.16-.1A77,77,0,0,0,225.49,5V9.9a40.21,40.21,0,0,1,9.44-1.2c.69,0,1.38,0,2,.07,3.06.2,4.89.76,5.86,1.88S244,13.24,244,15.5v1.16h-.43c-7.56.18-12.52.81-12.73.84h-.07a9,9,0,0,0,0,17.8l.19,0h21.65V15.5c0-2.55-.28-5.78-2.43-8.17C248.3,5.3,245.45,4.21,241.16,3.92ZM244,30.8h-8.27a4,4,0,0,1-3.22-1.59,4.83,4.83,0,0,1-.94-2.81,4.54,4.54,0,0,1,4.7-4.79l6.56-.2H244Z"/><polygon id="_路径_4" data-name="&lt;路径&gt;" class="cls-2" points="277.33 20.02 287.57 4.71 280.06 4.71 272.04 16.7 264.02 4.71 255.18 4.71 265.42 20.02 255.18 35.34 262.69 35.34 270.71 23.35 278.73 35.34 287.57 35.34 277.33 20.02 277.33 20.02"/><path id="_复合路径_3" data-name="&lt;复合路径&gt;" class="cls-2" d="M116.41,3.92c-1-.07-2.06-.1-3.16-.1A77,77,0,0,0,100.74,5V9.9a40.18,40.18,0,0,1,9.44-1.2c.69,0,1.38,0,2,.07,3.06.2,4.89.76,5.86,1.88s1.12,2.59,1.12,4.85v1.16h-.43c-7.56.18-12.52.81-12.73.84H106a9,9,0,0,0,0,17.8l.19,0h21.65V15.5c0-2.55-.28-5.78-2.43-8.17C123.55,5.3,120.7,4.21,116.41,3.92Zm2.8,26.88h-8.27a4,4,0,0,1-3.22-1.59,4.82,4.82,0,0,1-.94-2.81,4.54,4.54,0,0,1,4.7-4.79c3-.15,4.62-.2,6.57-.2h1.18Z"/><path id="_路径_5" data-name="&lt;路径&gt;" class="cls-2" d="M179.19,9.81a9.54,9.54,0,0,0-10-5.33,17.35,17.35,0,0,0-3.29.77c-2.08.71-4.11,1.47-5.28,1.92l-.22.08a8.39,8.39,0,0,0-3.89-2.65h0L156,4.44a14.07,14.07,0,0,0-3.32-.38,13.37,13.37,0,0,0-4.78.82c-2.28.9-4.45,1.9-5.87,2.58l-.36.17L141.47,7l-1.06-2.56H134.1V35.34h8.53V11.49l.28-.06c.24-.1,1-.38,3.5-1.09a7.82,7.82,0,0,1,2.14-.3c2.56,0,5.32,1.26,5.32,4V35.34h8.53V11.43l.23-.07,1.61-.47a15.89,15.89,0,0,1,4.27-.64c3.19,0,4.94,1.26,4.94,3.56V35.34H182V21.19a23,23,0,0,0-1.63-8.51S179.25,10,179.19,9.81Z"/><path id="_路径_6" data-name="&lt;路径&gt;" class="cls-2" d="M195.92,24.75,186.05,0h-11.7a16.19,16.19,0,0,1,7.12,6.28c.17.27.33.54.48.82s.18.28.25.43h0c.07.13.15.26.22.4l0,.08s.32.7.56,1.29l10.41,26h5L209.84,6.67V35.34h8.53V0H205.78Z"/></g></g><g id="_编组_6" data-name="&lt;编组&gt;"><g id="_编组_7" data-name="&lt;编组&gt;"><polygon id="_路径_7" data-name="&lt;路径&gt;" class="cls-3" points="409.35 6.36 390.65 7.63 390.65 4.98 409.35 3.71 409.35 6.36"/><polygon id="_路径_8" data-name="&lt;路径&gt;" class="cls-3" points="427.71 27.88 411.07 29.12 411.07 26.44 427.71 25.2 427.71 27.88"/><rect id="_路径_9" data-name="&lt;路径&gt;" class="cls-3" x="397.23" y="6.1" width="5.55" height="29.24"/><path id="_路径_10" data-name="&lt;路径&gt;" class="cls-3" d="M409.35,25a62.88,62.88,0,0,0,.9,10.38h-3.18a30.41,30.41,0,0,1-2-10.62V16.64h4.3Z"/><rect id="_路径_11" data-name="&lt;路径&gt;" class="cls-3" x="420.47" y="3.49" width="5.35" height="31.85"/><path id="_路径_12" data-name="&lt;路径&gt;" class="cls-3" d="M390.66,16.64V25a62.88,62.88,0,0,1-.9,10.38h3.18a30.41,30.41,0,0,0,2-10.62V16.64Z"/><rect id="_路径_13" data-name="&lt;路径&gt;" class="cls-3" x="390.66" y="11.94" width="18.69" height="2.6"/><polygon id="_路径_14" data-name="&lt;路径&gt;" class="cls-3" points="414.51 13.36 418.78 13.36 417.08 4.98 412.42 4.98 414.51 13.36"/><polygon id="_路径_15" data-name="&lt;路径&gt;" class="cls-3" points="418.12 22.98 416.6 15.09 411.94 15.09 413.84 22.98 418.12 22.98"/></g><g id="_编组_8" data-name="&lt;编组&gt;"><rect id="_矩形_" data-name="&lt;矩形&gt;" class="cls-3" x="345.57" y="32.77" width="39.19" height="2.57"/><rect id="_矩形_2" data-name="&lt;矩形&gt;" class="cls-3" x="347.62" y="23.39" width="5.24" height="11.95"/><rect id="_矩形_3" data-name="&lt;矩形&gt;" class="cls-3" x="377.45" y="23.39" width="5.24" height="11.95"/><rect id="_矩形_4" data-name="&lt;矩形&gt;" class="cls-3" x="367.73" y="23.39" width="4.74" height="11.95"/><rect id="_矩形_5" data-name="&lt;矩形&gt;" class="cls-3" x="357.85" y="23.39" width="4.74" height="11.95"/><rect id="_矩形_6" data-name="&lt;矩形&gt;" class="cls-3" x="347.72" y="11.28" width="10.98" height="2.43"/><rect id="_矩形_7" data-name="&lt;矩形&gt;" class="cls-3" x="365.88" y="9.32" width="12.36" height="2.21"/><rect id="_矩形_8" data-name="&lt;矩形&gt;" class="cls-3" x="365.88" y="14.34" width="12.36" height="2.21"/><rect id="_矩形_9" data-name="&lt;矩形&gt;" class="cls-3" x="347.72" y="4.22" width="4.97" height="16.48"/><path id="_路径_16" data-name="&lt;路径&gt;" class="cls-3" d="M365.88,4V15.26a12.74,12.74,0,0,1-1.31,6.46h4.08c1.19-1.38,1.81-4.1,1.81-6.66V4Z"/><path id="_路径_17" data-name="&lt;路径&gt;" class="cls-3" d="M363.22,4.22h-4.69V18.38H347.72V20.7h12.6a2.88,2.88,0,0,0,2.9-2.86Z"/><rect id="_矩形_10" data-name="&lt;矩形&gt;" class="cls-3" x="365.88" y="3.98" width="16.72" height="2.48"/><rect id="_矩形_11" data-name="&lt;矩形&gt;" class="cls-3" x="347.72" y="4.22" width="15.5" height="2.48"/><rect id="_矩形_12" data-name="&lt;矩形&gt;" class="cls-3" x="347.62" y="23.39" width="35.07" height="2.51"/><path id="_矩形_13" data-name="&lt;矩形&gt;" class="cls-3" d="M377.69,4h4.91a0,0,0,0,1,0,0V19a2.75,2.75,0,0,1-2.75,2.75h-2.16a0,0,0,0,1,0,0V4A0,0,0,0,1,377.69,4Z"/><polygon id="_路径_18" data-name="&lt;路径&gt;" class="cls-3" points="377.69 19.4 374.12 19.4 374.81 21.72 377.69 21.72 377.69 19.4"/></g><g id="_编组_9" data-name="&lt;编组&gt;"><rect id="_矩形_14" data-name="&lt;矩形&gt;" class="cls-3" x="432.21" y="7.02" width="13.48" height="2.6"/><rect id="_矩形_15" data-name="&lt;矩形&gt;" class="cls-3" x="447.55" y="7.02" width="22.23" height="2.6"/><polygon id="_路径_19" data-name="&lt;路径&gt;" class="cls-3" points="445.68 18.98 432.21 24.13 432.21 20.6 445.68 15.83 445.68 18.98"/><rect id="_矩形_16" data-name="&lt;矩形&gt;" class="cls-3" x="455.83" y="3.49" width="5.68" height="11.36"/><path id="_路径_20" data-name="&lt;路径&gt;" class="cls-3" d="M448,14.25v2.64h15.23v2.88l-.49.41a73.85,73.85,0,0,1-17.06,11.57v3.59c10.14-4,18.71-10.69,21-12.45h0l2.17-1.72V14.25Z"/><path id="_路径_21" data-name="&lt;路径&gt;" class="cls-3" d="M470.16,35.34V31.74A61,61,0,0,1,455.22,20H448l2.17,1.86h0C452.32,23.68,460.67,31,470.16,35.34Z"/><path id="_矩形_17" data-name="&lt;矩形&gt;" class="cls-3" d="M437.42,3.49H443a0,0,0,0,1,0,0V31.83a3.51,3.51,0,0,1-3.51,3.51h-2.09a0,0,0,0,1,0,0V3.49A0,0,0,0,1,437.42,3.49Z"/><polygon id="_路径_22" data-name="&lt;路径&gt;" class="cls-3" points="437.42 32.78 432.44 32.78 433.22 35.34 437.42 35.34 437.42 32.78"/></g><g id="_编组_10" data-name="&lt;编组&gt;"><rect id="_矩形_18" data-name="&lt;矩形&gt;" class="cls-3" x="314.04" y="6" width="25.62" height="2.6"/><polygon id="_路径_23" data-name="&lt;路径&gt;" class="cls-3" points="329.33 8.29 324.65 8.29 322.99 3.49 328.44 3.49 329.33 8.29"/><g id="_编组_11" data-name="&lt;编组&gt;"><polygon id="_路径_24" data-name="&lt;路径&gt;" class="cls-3" points="325.11 13.73 320.61 13.73 318.21 8.17 323.24 8.17 325.11 13.73"/><polygon id="_路径_25" data-name="&lt;路径&gt;" class="cls-3" points="328.59 13.73 333.09 13.73 335.49 8.17 330.46 8.17 328.59 13.73"/></g><rect id="_矩形_19" data-name="&lt;矩形&gt;" class="cls-3" x="314.02" y="12.59" width="4.91" height="6.1"/><polygon id="_路径_26" data-name="&lt;路径&gt;" class="cls-3" points="312.5 3.98 306.92 3.98 302.14 13.05 302.14 15.65 312.03 15.65 312.03 13.05 307.4 13.05 312.5 3.98"/><polygon id="_路径_27" data-name="&lt;路径&gt;" class="cls-3" points="307.05 24.34 312.03 15.65 306.47 15.65 301.7 24.61 301.7 27.26 313.02 26.56 313.02 23.91 307.05 24.34"/><polygon id="_路径_28" data-name="&lt;路径&gt;" class="cls-3" points="301.7 35.34 313.02 32.81 313.02 29.4 301.7 31.47 301.7 35.34"/><rect id="_矩形_20" data-name="&lt;矩形&gt;" class="cls-3" x="324.15" y="16.49" width="5.41" height="18.85"/><rect id="_矩形_21" data-name="&lt;矩形&gt;" class="cls-3" x="315.43" y="20.05" width="5.1" height="15.29"/><path id="_路径_29" data-name="&lt;路径&gt;" class="cls-3" d="M338.27,20H315.43v2.5h17.74V33.05h-1.6l.38,2.29h3.78a2.54,2.54,0,0,0,2.54-2.54Z"/><rect id="_路径_30" data-name="&lt;路径&gt;" class="cls-3" x="314.04" y="12.59" width="25.62" height="2.5"/><rect id="_矩形_22" data-name="&lt;矩形&gt;" class="cls-3" x="334.86" y="12.59" width="4.8" height="6.1"/></g></g></g></g></g></g></svg>